<mxfile host="app.diagrams.net" agent="Mozilla/5.0 (Windows NT 10.0; Win64; x64) AppleWebKit/537.36 (KHTML, like Gecko) Chrome/134.0.0.0 Safari/537.36 OPR/119.0.0.0" version="27.2.0">
  <diagram name="Página-1" id="d-P7JN4mpOu-83VVF93L">
    <mxGraphModel grid="1" page="1" gridSize="10" guides="1" tooltips="1" connect="1" arrows="1" fold="1" pageScale="1" pageWidth="827" pageHeight="1169" math="0" shadow="0">
      <root>
        <mxCell id="0" />
        <mxCell id="1" parent="0" />
        <mxCell id="sGsWgp8qX2HAL5Vx84l_-1" value="Usuário" style="shape=umlActor;verticalLabelPosition=bottom;verticalAlign=top;html=1;outlineConnect=0;" vertex="1" parent="1">
          <mxGeometry x="140" y="415" width="30" height="60" as="geometry" />
        </mxCell>
        <mxCell id="sGsWgp8qX2HAL5Vx84l_-2" style="edgeStyle=orthogonalEdgeStyle;rounded=0;orthogonalLoop=1;jettySize=auto;html=1;exitX=0;exitY=0.5;exitDx=0;exitDy=0;endArrow=none;startFill=0;" edge="1" parent="1" source="sGsWgp8qX2HAL5Vx84l_-3">
          <mxGeometry relative="1" as="geometry">
            <mxPoint x="210" y="450" as="targetPoint" />
          </mxGeometry>
        </mxCell>
        <mxCell id="sGsWgp8qX2HAL5Vx84l_-3" value="Configurar Nova Batalha" style="ellipse;whiteSpace=wrap;html=1;fillColor=#ffe6cc;strokeColor=#d79b00;" vertex="1" parent="1">
          <mxGeometry x="344" y="365" width="120" height="50" as="geometry" />
        </mxCell>
        <mxCell id="sGsWgp8qX2HAL5Vx84l_-5" value="Gerenciar Personagens" style="ellipse;whiteSpace=wrap;html=1;fillColor=#f8cecc;strokeColor=#b85450;" vertex="1" parent="1">
          <mxGeometry x="544" y="140" width="101" height="40" as="geometry" />
        </mxCell>
        <mxCell id="sGsWgp8qX2HAL5Vx84l_-6" style="edgeStyle=orthogonalEdgeStyle;rounded=0;orthogonalLoop=1;jettySize=auto;html=1;exitX=0;exitY=0.5;exitDx=0;exitDy=0;endArrow=none;startFill=0;" edge="1" parent="1" source="sGsWgp8qX2HAL5Vx84l_-7">
          <mxGeometry relative="1" as="geometry">
            <mxPoint x="210" y="450" as="targetPoint" />
          </mxGeometry>
        </mxCell>
        <mxCell id="sGsWgp8qX2HAL5Vx84l_-7" value="Gerenciar Grupo" style="ellipse;whiteSpace=wrap;html=1;fillColor=#f8cecc;strokeColor=#b85450;" vertex="1" parent="1">
          <mxGeometry x="370" y="180" width="100" height="40" as="geometry" />
        </mxCell>
        <mxCell id="sGsWgp8qX2HAL5Vx84l_-8" value="Gerenciar Inimigos" style="ellipse;whiteSpace=wrap;html=1;fillColor=#f8cecc;strokeColor=#b85450;" vertex="1" parent="1">
          <mxGeometry x="545" y="210" width="100" height="40" as="geometry" />
        </mxCell>
        <mxCell id="sGsWgp8qX2HAL5Vx84l_-9" style="edgeStyle=orthogonalEdgeStyle;rounded=0;orthogonalLoop=1;jettySize=auto;html=1;endArrow=none;startFill=0;exitX=0;exitY=0.5;exitDx=0;exitDy=0;" edge="1" parent="1">
          <mxGeometry relative="1" as="geometry">
            <mxPoint x="543.9999999999999" y="229.97000000000003" as="sourcePoint" />
            <mxPoint x="210" y="450" as="targetPoint" />
            <Array as="points">
              <mxPoint x="210" y="229.97000000000003" />
              <mxPoint x="210" y="449.97" />
            </Array>
          </mxGeometry>
        </mxCell>
        <mxCell id="sGsWgp8qX2HAL5Vx84l_-10" value="Criar Ficha de Personagem" style="ellipse;whiteSpace=wrap;html=1;fillColor=#f8cecc;strokeColor=#b85450;" vertex="1" parent="1">
          <mxGeometry x="380" y="30" width="110" height="50" as="geometry" />
        </mxCell>
        <mxCell id="sGsWgp8qX2HAL5Vx84l_-11" value="Criar Ficha de Inimigo" style="ellipse;whiteSpace=wrap;html=1;fillColor=#f8cecc;strokeColor=#b85450;" vertex="1" parent="1">
          <mxGeometry x="344" y="100" width="110" height="50" as="geometry" />
        </mxCell>
        <mxCell id="sGsWgp8qX2HAL5Vx84l_-12" value="Simular Batalha" style="ellipse;whiteSpace=wrap;html=1;fillColor=#ffe6cc;strokeColor=#d79b00;" vertex="1" parent="1">
          <mxGeometry x="345" y="280" width="120" height="50" as="geometry" />
        </mxCell>
        <mxCell id="sGsWgp8qX2HAL5Vx84l_-13" style="rounded=0;orthogonalLoop=1;jettySize=auto;html=1;exitX=0;exitY=0.5;exitDx=0;exitDy=0;endArrow=none;startFill=0;edgeStyle=orthogonalEdgeStyle;" edge="1" parent="1" source="sGsWgp8qX2HAL5Vx84l_-12">
          <mxGeometry relative="1" as="geometry">
            <mxPoint x="210" y="450" as="targetPoint" />
          </mxGeometry>
        </mxCell>
        <mxCell id="sGsWgp8qX2HAL5Vx84l_-18" value="" style="endArrow=none;html=1;rounded=0;entryX=0;entryY=0.5;entryDx=0;entryDy=0;edgeStyle=orthogonalEdgeStyle;" edge="1" parent="1" target="sGsWgp8qX2HAL5Vx84l_-5">
          <mxGeometry width="50" height="50" relative="1" as="geometry">
            <mxPoint x="210" y="450" as="sourcePoint" />
            <mxPoint x="170" y="160" as="targetPoint" />
            <Array as="points">
              <mxPoint x="210" y="160" />
            </Array>
          </mxGeometry>
        </mxCell>
        <mxCell id="sGsWgp8qX2HAL5Vx84l_-19" value="" style="endArrow=none;html=1;rounded=0;entryX=0;entryY=0.5;entryDx=0;entryDy=0;edgeStyle=orthogonalEdgeStyle;" edge="1" parent="1" target="sGsWgp8qX2HAL5Vx84l_-10">
          <mxGeometry width="50" height="50" relative="1" as="geometry">
            <mxPoint x="210" y="410" as="sourcePoint" />
            <mxPoint x="270" y="620" as="targetPoint" />
            <Array as="points">
              <mxPoint x="210" y="55" />
            </Array>
          </mxGeometry>
        </mxCell>
        <mxCell id="sGsWgp8qX2HAL5Vx84l_-20" value="" style="endArrow=none;html=1;rounded=0;exitX=0;exitY=0.5;exitDx=0;exitDy=0;edgeStyle=orthogonalEdgeStyle;" edge="1" parent="1" source="sGsWgp8qX2HAL5Vx84l_-11">
          <mxGeometry width="50" height="50" relative="1" as="geometry">
            <mxPoint x="190" y="730" as="sourcePoint" />
            <mxPoint x="210" y="450" as="targetPoint" />
          </mxGeometry>
        </mxCell>
        <mxCell id="sGsWgp8qX2HAL5Vx84l_-26" style="edgeStyle=orthogonalEdgeStyle;rounded=0;orthogonalLoop=1;jettySize=auto;html=1;exitX=0;exitY=0.5;exitDx=0;exitDy=0;endArrow=none;endFill=0;" edge="1" parent="1" source="sGsWgp8qX2HAL5Vx84l_-21">
          <mxGeometry relative="1" as="geometry">
            <mxPoint x="210" y="450" as="targetPoint" />
          </mxGeometry>
        </mxCell>
        <mxCell id="sGsWgp8qX2HAL5Vx84l_-21" value="Gerenciar Classes de personagem" style="ellipse;whiteSpace=wrap;html=1;fillColor=#d5e8d4;strokeColor=#82b366;" vertex="1" parent="1">
          <mxGeometry x="345" y="490" width="110" height="50" as="geometry" />
        </mxCell>
        <mxCell id="sGsWgp8qX2HAL5Vx84l_-22" value="Gerenciar Raças" style="ellipse;whiteSpace=wrap;html=1;fillColor=#d5e8d4;strokeColor=#82b366;" vertex="1" parent="1">
          <mxGeometry x="539.5" y="500" width="110" height="50" as="geometry" />
        </mxCell>
        <mxCell id="sGsWgp8qX2HAL5Vx84l_-23" value="Gerenciar Armas" style="ellipse;whiteSpace=wrap;html=1;fillColor=#d5e8d4;strokeColor=#82b366;" vertex="1" parent="1">
          <mxGeometry x="414" y="585" width="110" height="50" as="geometry" />
        </mxCell>
        <mxCell id="sGsWgp8qX2HAL5Vx84l_-30" style="edgeStyle=orthogonalEdgeStyle;rounded=0;orthogonalLoop=1;jettySize=auto;html=1;exitX=0;exitY=0.5;exitDx=0;exitDy=0;endArrow=none;endFill=0;" edge="1" parent="1" source="sGsWgp8qX2HAL5Vx84l_-24">
          <mxGeometry relative="1" as="geometry">
            <mxPoint x="210" y="450" as="targetPoint" />
          </mxGeometry>
        </mxCell>
        <mxCell id="sGsWgp8qX2HAL5Vx84l_-24" value="Gerenciar Armaduras" style="ellipse;whiteSpace=wrap;html=1;fillColor=#d5e8d4;strokeColor=#82b366;" vertex="1" parent="1">
          <mxGeometry x="429.5" y="700" width="110" height="50" as="geometry" />
        </mxCell>
        <mxCell id="sGsWgp8qX2HAL5Vx84l_-25" value="Gerenciar Habilidades" style="ellipse;whiteSpace=wrap;html=1;fillColor=#d5e8d4;strokeColor=#82b366;" vertex="1" parent="1">
          <mxGeometry x="290" y="650" width="110" height="50" as="geometry" />
        </mxCell>
        <mxCell id="sGsWgp8qX2HAL5Vx84l_-27" style="edgeStyle=orthogonalEdgeStyle;rounded=0;orthogonalLoop=1;jettySize=auto;html=1;exitX=0;exitY=0.5;exitDx=0;exitDy=0;endArrow=none;endFill=0;" edge="1" parent="1" source="sGsWgp8qX2HAL5Vx84l_-22">
          <mxGeometry relative="1" as="geometry">
            <mxPoint x="210" y="450" as="targetPoint" />
            <mxPoint x="345" y="584" as="sourcePoint" />
            <Array as="points">
              <mxPoint x="510" y="550" />
              <mxPoint x="210" y="550" />
            </Array>
          </mxGeometry>
        </mxCell>
        <mxCell id="sGsWgp8qX2HAL5Vx84l_-28" style="edgeStyle=orthogonalEdgeStyle;rounded=0;orthogonalLoop=1;jettySize=auto;html=1;exitX=0;exitY=0.5;exitDx=0;exitDy=0;endArrow=none;endFill=0;" edge="1" parent="1" source="sGsWgp8qX2HAL5Vx84l_-25">
          <mxGeometry relative="1" as="geometry">
            <mxPoint x="210" y="450" as="targetPoint" />
            <mxPoint x="215" y="665" as="sourcePoint" />
            <Array as="points">
              <mxPoint x="210" y="675" />
            </Array>
          </mxGeometry>
        </mxCell>
        <mxCell id="sGsWgp8qX2HAL5Vx84l_-29" style="edgeStyle=orthogonalEdgeStyle;rounded=0;orthogonalLoop=1;jettySize=auto;html=1;exitX=0;exitY=0.5;exitDx=0;exitDy=0;endArrow=none;endFill=0;" edge="1" parent="1" source="sGsWgp8qX2HAL5Vx84l_-23">
          <mxGeometry relative="1" as="geometry">
            <mxPoint x="210" y="450" as="targetPoint" />
            <mxPoint x="195" y="755" as="sourcePoint" />
            <Array as="points">
              <mxPoint x="280" y="610" />
              <mxPoint x="280" y="650" />
              <mxPoint x="210" y="650" />
              <mxPoint x="210" y="530" />
            </Array>
          </mxGeometry>
        </mxCell>
      </root>
    </mxGraphModel>
  </diagram>
</mxfile>
